<svg width="187" height="54" viewBox="0 0 187 54" fill="none" xmlns="http://www.w3.org/2000/svg">
<path d="M30.9111 23.6153L8.61832 1.32242C5.79338 -1.50254 0.963135 0.498198 0.963135 4.49327V49.3836C0.963135 53.3656 5.76598 55.3722 8.59879 52.574L30.8898 30.5548C32.8203 28.6478 32.8298 25.534 30.9111 23.6153Z" fill="#112F4E"/>
<path d="M0 15.2734H13.1932C16.1201 15.2734 18.4928 17.6462 18.4928 20.5731C18.4928 23.5001 16.1201 25.8728 13.1932 25.8728H0V15.2734Z" fill="white"/>
<path d="M0.666748 30.3572H7.07811C10.005 30.3572 12.3778 32.7299 12.3778 35.6569C12.3778 38.5839 10.005 40.9565 7.07811 40.9565H0.666748V30.3572Z" fill="white"/>
<path d="M157.031 7.93555H142.763V11.6046H157.031V7.93555Z" fill="#112F4E"/>
<path d="M155.401 14.4581H142.763V18.1271H155.401V14.4581Z" fill="#112F4E"/>
<path d="M157.031 20.5731H142.763V24.2421H157.031V20.5731Z" fill="#112F4E"/>
<path d="M102.404 8.34326H85.2822V11.6046H92.2125V23.8346H95.8815V11.6046H102.404V8.34326Z" fill="#112F4E"/>
<path d="M52.669 15.6813V11.6046H62.8606V8.34326H49V23.8346H52.669V18.9426H61.2299V15.6813H52.669Z" fill="#112F4E"/>
<path d="M68.9759 8.34326H65.3069V15.8851C65.3069 20.7257 69.2311 24.6499 74.0717 24.6499C78.9124 24.6499 82.8366 20.7257 82.8366 15.8851V8.34326H79.1676V16.0889C79.1676 18.5655 77.1598 20.5732 74.6832 20.5732H73.5899C71.1426 20.5732 69.1471 18.6108 69.1063 16.1636L68.9759 8.34326Z" fill="#112F4E"/>
<path d="M108.519 8.34326H104.85V15.8851C104.85 20.7257 108.774 24.6499 113.615 24.6499C118.455 24.6499 122.38 20.7257 122.38 15.8851V8.34326H118.711V16.0889C118.711 18.5655 116.703 20.5732 114.226 20.5732H113.133C110.686 20.5732 108.69 18.6108 108.649 16.1636L108.519 8.34326Z" fill="#112F4E"/>
<path d="M124.826 11.6046V8.34326H134.814C137.516 8.34326 139.706 10.5335 139.706 13.2353V14.5395C139.706 16.1874 138.632 17.6426 137.056 18.1273L140.318 23.8346H136.241L133.387 18.5349H128.495V23.8346H124.826V15.6813H134.203C135.328 15.6813 136.241 14.7687 136.241 13.6429C136.241 12.5172 135.328 11.6046 134.203 11.6046H124.826Z" fill="#112F4E"/>
<path d="M179.045 29.9497H169.669V45.441H179.045C183.323 45.441 186.791 41.973 186.791 37.6954C186.791 33.4176 183.323 29.9497 179.045 29.9497Z" fill="#112F4E"/>
<path d="M173.338 42.5872V33.2108H178.842C181.431 33.2108 183.53 35.3099 183.53 37.899C183.53 40.4881 181.431 42.5872 178.842 42.5872H173.338Z" fill="white"/>
<path d="M132.979 45.441H129.106L136.648 29.9497H140.724L148.47 45.441H144.393L138.686 34.0264L132.979 45.441Z" fill="#112F4E"/>
<path d="M105.666 29.9497H101.589L107.704 45.441H111.577L116.469 34.434L120.75 45.441H124.826L131.349 29.9497H127.272L122.788 40.549L118.304 29.9497H114.635L109.947 40.549L105.666 29.9497Z" fill="#112F4E"/>
<path d="M52.669 37.2877V33.211H62.8606V29.9497H49V45.441H52.669V40.549H61.2299V37.2877H52.669Z" fill="#112F4E"/>
<path d="M84.467 33.211V29.9497H94.4549C97.1565 29.9497 99.3469 32.1399 99.3469 34.8417V36.1458C99.3469 37.794 98.2723 39.249 96.697 39.7337L99.9584 45.441H95.8817L93.028 40.1414H88.136V45.441H84.467V37.2877H93.8434C94.9689 37.2877 95.8817 36.3749 95.8817 35.2494C95.8817 34.1236 94.9689 33.211 93.8434 33.211H84.467Z" fill="#112F4E"/>
<path d="M150.916 33.211V29.9497H160.904C163.605 29.9497 165.796 32.1399 165.796 34.8417V36.1458C165.796 37.794 164.721 39.249 163.146 39.7337L166.407 45.441H162.33L159.477 40.1414H154.585V45.441H150.916V37.2877H160.292C161.418 37.2877 162.33 36.3749 162.33 35.2494C162.33 34.1236 161.418 33.211 160.292 33.211H150.916Z" fill="#112F4E"/>
<path d="M73.8674 43.8103C77.2446 43.8103 79.9824 41.0725 79.9824 37.6953C79.9824 34.3181 77.2446 31.5803 73.8674 31.5803C70.4902 31.5803 67.7524 34.3181 67.7524 37.6953C67.7524 41.0725 70.4902 43.8103 73.8674 43.8103Z" stroke="#112F4E" stroke-width="2.81538"/>
</svg>
