<svg width="33" height="34" viewBox="0 0 33 34" fill="none" xmlns="http://www.w3.org/2000/svg">
<g clip-path="url(#clip0_2238_295)">
<g clip-path="url(#clip1_2238_295)">
<g clip-path="url(#clip2_2238_295)">
<path d="M0.0180931 16.68C0.0180931 25.7621 7.38052 33.1245 16.4625 33.1245C25.5446 33.1245 32.907 25.7621 32.907 16.68C32.907 7.59802 25.5446 0.235596 16.4625 0.235596C7.38052 0.235596 0.0180931 7.59802 0.0180931 16.68Z" fill="#02BFE7"/>
<path d="M0.462402 16.6799C0.462402 25.5165 7.62584 32.6799 16.4624 32.6799C25.299 32.6799 32.4624 25.5165 32.4624 16.6799C32.4624 7.84338 25.299 0.679932 16.4624 0.679932C7.62584 0.679932 0.462402 7.84338 0.462402 16.6799Z" stroke="#112F4E" stroke-width="0.888889"/>
<path d="M16.5848 20.6924L8.04256 11.8435L6.21411 13.6835L16.5848 24.0542L26.9546 13.6835L25.127 11.856L16.5848 20.6924Z" fill="#1B1B1B"/>
</g>
</g>
</g>
<defs>
<clipPath id="clip0_2238_295">
<rect width="32.8889" height="32.8889" fill="white" transform="translate(0.0180664 0.235596)"/>
</clipPath>
<clipPath id="clip1_2238_295">
<rect width="32.8889" height="32.8889" fill="white" transform="translate(0.0180664 0.235596)"/>
</clipPath>
<clipPath id="clip2_2238_295">
<rect width="32.8889" height="32.8889" fill="white" transform="translate(0.0180664 0.235596)"/>
</clipPath>
</defs>
</svg>
